<svg xmlns="http://www.w3.org/2000/svg" version="1.1" width="637.7mm" height="782.7mm" viewBox = " 0 0 2259.568787 2773.3487370000003" >
<!-- Front--> 
<g transform="translate(22.5000185, 22.5000185) " > 
<polygon style="stroke:#000000; fill:none; stroke-width:0.90000074" points="0, 0 35.433099999999996, 0 35.433099999999996, 10.62993 70.86619999999999, 10.62993 70.86619999999999, 0 92.12606, 0 92.12606, 10.62993 113.38592, 10.62993 113.38592, 0 134.64578, 0 134.64578, 10.62993 155.90564, 10.62993 155.90564, 0 177.1655, 0 177.1655, 10.62993 212.59859999999998, 10.62993 212.59859999999998, 0 248.0317, 0 248.0317, 34.5472725 237.40177, 34.5472725 237.40177, 69.094545 248.0317, 69.094545 248.0317, 90.354405 237.40177, 90.354405 237.40177, 111.61426499999999 248.0317, 111.61426499999999 248.0317, 132.874125 237.40177, 132.874125 237.40177, 154.133985 248.0317, 154.133985 248.0317, 175.393845 237.40177, 175.393845 237.40177, 196.653705 248.0317, 196.653705 248.0317, 217.913565 237.40177, 217.913565 237.40177, 239.173425 248.0317, 239.173425 248.0317, 260.433285 237.40177, 260.433285 237.40177, 281.693145 248.0317, 281.693145 248.0317, 302.953005 237.40177, 302.953005 237.40177, 324.21286499999997 248.0317, 324.21286499999997 248.0317, 345.47272499999997 237.40177, 345.47272499999997 237.40177, 366.732585 248.0317, 366.732585 248.0317, 387.992445 237.40177, 387.992445 237.40177, 409.252305 248.0317, 409.252305 248.0317, 430.512165 237.40177, 430.512165 237.40177, 451.772025 248.0317, 451.772025 248.0317, 473.031885 237.40177, 473.031885 237.40177, 494.291745 248.0317, 494.291745 248.0317, 515.551605 237.40177, 515.551605 237.40177, 536.811465 248.0317, 536.811465 248.0317, 558.071325 237.40177, 558.071325 237.40177, 579.331185 248.0317, 579.331185 248.0317, 600.591045 237.40177, 600.591045 237.40177, 621.850905 248.0317, 621.850905 248.0317, 643.110765 237.40177, 643.110765 237.40177, 664.370625 248.0317, 664.370625 248.0317, 685.630485 237.40177, 685.630485 237.40177, 706.890345 248.0317, 706.890345 248.0317, 728.150205 237.40177, 728.150205 237.40177, 749.410065 248.0317, 749.410065 248.0317, 770.669925 237.40177, 770.669925 237.40177, 791.929785 248.0317, 791.929785 248.0317, 813.189645 237.40177, 813.189645 237.40177, 834.449505 248.0317, 834.449505 248.0317, 855.709365 237.40177, 855.709365 237.40177, 876.969225 248.0317, 876.969225 248.0317, 898.229085 237.40177, 898.229085 237.40177, 919.4889450000001 248.0317, 919.4889450000001 248.0317, 940.7488050000001 237.40177, 940.7488050000001 237.40177, 975.2960775 248.0317, 975.2960775 248.0317, 1009.84335 212.59859999999998, 1009.84335 212.59859999999998, 999.21342 177.1655, 999.21342 177.1655, 1009.84335 155.90564, 1009.84335 155.90564, 999.21342 134.64578, 999.21342 134.64578, 1009.84335 113.38592, 1009.84335 113.38592, 999.21342 92.12606, 999.21342 92.12606, 1009.84335 70.86619999999999, 1009.84335 70.86619999999999, 999.21342 35.433099999999996, 999.21342 35.433099999999996, 1009.84335 0, 1009.84335 0, 975.2960775 10.62993, 975.2960775 10.62993, 940.7488050000001 0, 940.7488050000001 0, 919.4889450000001 10.62993, 919.4889450000001 10.62993, 898.229085 0, 898.229085 0, 876.969225 10.62993, 876.969225 10.62993, 855.709365 0, 855.709365 0, 834.449505 10.62993, 834.449505 10.62993, 813.189645 0, 813.189645 0, 791.929785 10.62993, 791.929785 10.62993, 770.669925 0, 770.669925 0, 749.410065 10.62993, 749.410065 10.62993, 728.150205 0, 728.150205 0, 706.890345 10.62993, 706.890345 10.62993, 685.630485 0, 685.630485 0, 664.370625 10.62993, 664.370625 10.62993, 643.110765 0, 643.110765 0, 621.850905 10.62993, 621.850905 10.62993, 600.591045 0, 600.591045 0, 579.331185 10.62993, 579.331185 10.62993, 558.071325 0, 558.071325 0, 536.811465 10.62993, 536.811465 10.62993, 515.551605 0, 515.551605 0, 494.291745 10.62993, 494.291745 10.62993, 473.031885 0, 473.031885 0, 451.772025 10.62993, 451.772025 10.62993, 430.512165 0, 430.512165 0, 409.252305 10.62993, 409.252305 10.62993, 387.992445 0, 387.992445 0, 366.732585 10.62993, 366.732585 10.62993, 345.47272499999997 0, 345.47272499999997 0, 324.21286499999997 10.62993, 324.21286499999997 10.62993, 302.953005 0, 302.953005 0, 281.693145 10.62993, 281.693145 10.62993, 260.433285 0, 260.433285 0, 239.173425 10.62993, 239.173425 10.62993, 217.913565 0, 217.913565 0, 196.653705 10.62993, 196.653705 10.62993, 175.393845 0, 175.393845 0, 154.133985 10.62993, 154.133985 10.62993, 132.874125 0, 132.874125 0, 111.61426499999999 10.62993, 111.61426499999999 10.62993, 90.354405 0, 90.354405 0, 69.094545 10.62993, 69.094545 10.62993, 34.5472725 0, 34.5472725 "/> 
</g>
<!-- Back--> 
<g transform="translate(270.53171849999995, 22.5000185) " > 
<polygon style="stroke:#000000; fill:none; stroke-width:0.90000074" points="0, 0 35.433099999999996, 0 35.433099999999996, 10.62993 70.86619999999999, 10.62993 70.86619999999999, 0 92.12606, 0 92.12606, 10.62993 113.38592, 10.62993 113.38592, 0 134.64578, 0 134.64578, 10.62993 155.90564, 10.62993 155.90564, 0 177.1655, 0 177.1655, 10.62993 212.59859999999998, 10.62993 212.59859999999998, 0 248.0317, 0 248.0317, 34.5472725 237.40177, 34.5472725 237.40177, 69.094545 248.0317, 69.094545 248.0317, 90.354405 237.40177, 90.354405 237.40177, 111.61426499999999 248.0317, 111.61426499999999 248.0317, 132.874125 237.40177, 132.874125 237.40177, 154.133985 248.0317, 154.133985 248.0317, 175.393845 237.40177, 175.393845 237.40177, 196.653705 248.0317, 196.653705 248.0317, 217.913565 237.40177, 217.913565 237.40177, 239.173425 248.0317, 239.173425 248.0317, 260.433285 237.40177, 260.433285 237.40177, 281.693145 248.0317, 281.693145 248.0317, 302.953005 237.40177, 302.953005 237.40177, 324.21286499999997 248.0317, 324.21286499999997 248.0317, 345.47272499999997 237.40177, 345.47272499999997 237.40177, 366.732585 248.0317, 366.732585 248.0317, 387.992445 237.40177, 387.992445 237.40177, 409.252305 248.0317, 409.252305 248.0317, 430.512165 237.40177, 430.512165 237.40177, 451.772025 248.0317, 451.772025 248.0317, 473.031885 237.40177, 473.031885 237.40177, 494.291745 248.0317, 494.291745 248.0317, 515.551605 237.40177, 515.551605 237.40177, 536.811465 248.0317, 536.811465 248.0317, 558.071325 237.40177, 558.071325 237.40177, 579.331185 248.0317, 579.331185 248.0317, 600.591045 237.40177, 600.591045 237.40177, 621.850905 248.0317, 621.850905 248.0317, 643.110765 237.40177, 643.110765 237.40177, 664.370625 248.0317, 664.370625 248.0317, 685.630485 237.40177, 685.630485 237.40177, 706.890345 248.0317, 706.890345 248.0317, 728.150205 237.40177, 728.150205 237.40177, 749.410065 248.0317, 749.410065 248.0317, 770.669925 237.40177, 770.669925 237.40177, 791.929785 248.0317, 791.929785 248.0317, 813.189645 237.40177, 813.189645 237.40177, 834.449505 248.0317, 834.449505 248.0317, 855.709365 237.40177, 855.709365 237.40177, 876.969225 248.0317, 876.969225 248.0317, 898.229085 237.40177, 898.229085 237.40177, 919.4889450000001 248.0317, 919.4889450000001 248.0317, 940.7488050000001 237.40177, 940.7488050000001 237.40177, 975.2960775 248.0317, 975.2960775 248.0317, 1009.84335 212.59859999999998, 1009.84335 212.59859999999998, 999.21342 177.1655, 999.21342 177.1655, 1009.84335 155.90564, 1009.84335 155.90564, 999.21342 134.64578, 999.21342 134.64578, 1009.84335 113.38592, 1009.84335 113.38592, 999.21342 92.12606, 999.21342 92.12606, 1009.84335 70.86619999999999, 1009.84335 70.86619999999999, 999.21342 35.433099999999996, 999.21342 35.433099999999996, 1009.84335 0, 1009.84335 0, 975.2960775 10.62993, 975.2960775 10.62993, 940.7488050000001 0, 940.7488050000001 0, 919.4889450000001 10.62993, 919.4889450000001 10.62993, 898.229085 0, 898.229085 0, 876.969225 10.62993, 876.969225 10.62993, 855.709365 0, 855.709365 0, 834.449505 10.62993, 834.449505 10.62993, 813.189645 0, 813.189645 0, 791.929785 10.62993, 791.929785 10.62993, 770.669925 0, 770.669925 0, 749.410065 10.62993, 749.410065 10.62993, 728.150205 0, 728.150205 0, 706.890345 10.62993, 706.890345 10.62993, 685.630485 0, 685.630485 0, 664.370625 10.62993, 664.370625 10.62993, 643.110765 0, 643.110765 0, 621.850905 10.62993, 621.850905 10.62993, 600.591045 0, 600.591045 0, 579.331185 10.62993, 579.331185 10.62993, 558.071325 0, 558.071325 0, 536.811465 10.62993, 536.811465 10.62993, 515.551605 0, 515.551605 0, 494.291745 10.62993, 494.291745 10.62993, 473.031885 0, 473.031885 0, 451.772025 10.62993, 451.772025 10.62993, 430.512165 0, 430.512165 0, 409.252305 10.62993, 409.252305 10.62993, 387.992445 0, 387.992445 0, 366.732585 10.62993, 366.732585 10.62993, 345.47272499999997 0, 345.47272499999997 0, 324.21286499999997 10.62993, 324.21286499999997 10.62993, 302.953005 0, 302.953005 0, 281.693145 10.62993, 281.693145 10.62993, 260.433285 0, 260.433285 0, 239.173425 10.62993, 239.173425 10.62993, 217.913565 0, 217.913565 0, 196.653705 10.62993, 196.653705 10.62993, 175.393845 0, 175.393845 0, 154.133985 10.62993, 154.133985 10.62993, 132.874125 0, 132.874125 0, 111.61426499999999 10.62993, 111.61426499999999 10.62993, 90.354405 0, 90.354405 0, 69.094545 10.62993, 69.094545 10.62993, 34.5472725 0, 34.5472725 "/> 
</g>
<!-- Left--> 
<g transform="translate(518.5634185, 22.5000185) " > 
<polygon style="stroke:#000000; fill:none; stroke-width:0.90000074" points="10.62993, 0 31.0039625, 0 31.0039625, 10.62993 62.007925, 10.62993 62.007925, 0 83.267785, 0 83.267785, 10.62993 104.527645, 10.62993 104.527645, 0 125.787505, 0 125.787505, 10.62993 147.047365, 10.62993 147.047365, 0 168.30722500000002, 0 168.30722500000002, 10.62993 189.567085, 10.62993 189.567085, 0 210.826945, 0 210.826945, 10.62993 232.086805, 10.62993 232.086805, 0 253.346665, 0 253.346665, 10.62993 274.60652500000003, 10.62993 274.60652500000003, 0 295.86638500000004, 0 295.86638500000004, 10.62993 317.126245, 10.62993 317.126245, 0 338.386105, 0 338.386105, 10.62993 359.645965, 10.62993 359.645965, 0 380.905825, 0 380.905825, 10.62993 402.165685, 10.62993 402.165685, 0 423.425545, 0 423.425545, 10.62993 444.685405, 10.62993 444.685405, 0 465.945265, 0 465.945265, 10.62993 487.205125, 10.62993 487.205125, 0 508.464985, 0 508.464985, 10.62993 529.724845, 10.62993 529.724845, 0 550.9847050000001, 0 550.9847050000001, 10.62993 572.244565, 10.62993 572.244565, 0 593.504425, 0 593.504425, 10.62993 614.764285, 10.62993 614.764285, 0 636.024145, 0 636.024145, 10.62993 657.284005, 10.62993 657.284005, 0 678.543865, 0 678.543865, 10.62993 699.803725, 10.62993 699.803725, 0 721.063585, 0 721.063585, 10.62993 742.323445, 10.62993 742.323445, 0 763.583305, 0 763.583305, 10.62993 784.843165, 10.62993 784.843165, 0 806.103025, 0 806.103025, 10.62993 827.362885, 10.62993 827.362885, 0 848.622745, 0 848.622745, 10.62993 869.882605, 10.62993 869.882605, 0 891.142465, 0 891.142465, 10.62993 912.402325, 10.62993 912.402325, 0 933.662185, 0 933.662185, 10.62993 954.922045, 10.62993 954.922045, 0 976.181905, 0 976.181905, 10.62993 997.441765, 10.62993 997.441765, 0 1018.701625, 0 1018.701625, 10.62993 1039.961485, 10.62993 1039.961485, 0 1061.221345, 0 1061.221345, 10.62993 1082.481205, 10.62993 1082.481205, 0 1103.7410650000002, 0 1103.7410650000002, 10.62993 1125.0009249999998, 10.62993 1125.0009249999998, 0 1146.260785, 0 1146.260785, 10.62993 1167.520645, 10.62993 1167.520645, 0 1188.7805050000002, 0 1188.7805050000002, 10.62993 1210.0403649999998, 10.62993 1210.0403649999998, 0 1231.300225, 0 1231.300225, 10.62993 1252.560085, 10.62993 1252.560085, 0 1273.8199450000002, 0 1273.8199450000002, 10.62993 1295.0798049999999, 10.62993 1295.0798049999999, 0 1316.339665, 0 1316.339665, 10.62993 1337.599525, 10.62993 1337.599525, 0 1358.8593850000002, 0 1358.8593850000002, 10.62993 1380.1192449999999, 10.62993 1380.1192449999999, 0 1401.379105, 0 1401.379105, 10.62993 1422.638965, 10.62993 1422.638965, 0 1443.8988249999998, 0 1443.8988249999998, 10.62993 1465.1586849999999, 10.62993 1465.1586849999999, 0 1486.418545, 0 1486.418545, 10.62993 1507.678405, 10.62993 1507.678405, 0 1528.9382649999998, 0 1528.9382649999998, 10.62993 1550.198125, 10.62993 1550.198125, 0 1571.457985, 0 1571.457985, 10.62993 1592.7178450000001, 10.62993 1592.7178450000001, 0 1613.9777049999998, 0 1613.9777049999998, 10.62993 1635.237565, 10.62993 1635.237565, 0 1656.497425, 0 1656.497425, 10.62993 1687.5013875, 10.62993 1687.5013875, 0 1707.8754199999998, 0 1707.8754199999998, 34.5472725 1718.50535, 34.5472725 1718.50535, 69.094545 1707.8754199999998, 69.094545 1707.8754199999998, 90.354405 1718.50535, 90.354405 1718.50535, 111.61426499999999 1707.8754199999998, 111.61426499999999 1707.8754199999998, 132.874125 1718.50535, 132.874125 1718.50535, 154.133985 1707.8754199999998, 154.133985 1707.8754199999998, 175.393845 1718.50535, 175.393845 1718.50535, 196.653705 1707.8754199999998, 196.653705 1707.8754199999998, 217.913565 1718.50535, 217.913565 1718.50535, 239.173425 1707.8754199999998, 239.173425 1707.8754199999998, 260.433285 1718.50535, 260.433285 1718.50535, 281.693145 1707.8754199999998, 281.693145 1707.8754199999998, 302.953005 1718.50535, 302.953005 1718.50535, 324.21286499999997 1707.8754199999998, 324.21286499999997 1707.8754199999998, 345.47272499999997 1718.50535, 345.47272499999997 1718.50535, 366.732585 1707.8754199999998, 366.732585 1707.8754199999998, 387.992445 1718.50535, 387.992445 1718.50535, 409.252305 1707.8754199999998, 409.252305 1707.8754199999998, 430.512165 1718.50535, 430.512165 1718.50535, 451.772025 1707.8754199999998, 451.772025 1707.8754199999998, 473.031885 1718.50535, 473.031885 1718.50535, 494.291745 1707.8754199999998, 494.291745 1707.8754199999998, 515.551605 1718.50535, 515.551605 1718.50535, 536.811465 1707.8754199999998, 536.811465 1707.8754199999998, 558.071325 1718.50535, 558.071325 1718.50535, 579.331185 1707.8754199999998, 579.331185 1707.8754199999998, 600.591045 1718.50535, 600.591045 1718.50535, 621.850905 1707.8754199999998, 621.850905 1707.8754199999998, 643.110765 1718.50535, 643.110765 1718.50535, 664.370625 1707.8754199999998, 664.370625 1707.8754199999998, 685.630485 1718.50535, 685.630485 1718.50535, 706.890345 1707.8754199999998, 706.890345 1707.8754199999998, 728.150205 1718.50535, 728.150205 1718.50535, 749.410065 1707.8754199999998, 749.410065 1707.8754199999998, 770.669925 1718.50535, 770.669925 1718.50535, 791.929785 1707.8754199999998, 791.929785 1707.8754199999998, 813.189645 1718.50535, 813.189645 1718.50535, 834.449505 1707.8754199999998, 834.449505 1707.8754199999998, 855.709365 1718.50535, 855.709365 1718.50535, 876.969225 1707.8754199999998, 876.969225 1707.8754199999998, 898.229085 1718.50535, 898.229085 1718.50535, 919.4889450000001 1707.8754199999998, 919.4889450000001 1707.8754199999998, 940.7488050000001 1718.50535, 940.7488050000001 1718.50535, 975.2960775 1707.8754199999998, 975.2960775 1707.8754199999998, 1009.84335 1687.5013875, 1009.84335 1687.5013875, 999.21342 1656.497425, 999.21342 1656.497425, 1009.84335 1635.237565, 1009.84335 1635.237565, 999.21342 1613.9777049999998, 999.21342 1613.9777049999998, 1009.84335 1592.7178450000001, 1009.84335 1592.7178450000001, 999.21342 1571.457985, 999.21342 1571.457985, 1009.84335 1550.198125, 1009.84335 1550.198125, 999.21342 1528.9382649999998, 999.21342 1528.9382649999998, 1009.84335 1507.678405, 1009.84335 1507.678405, 999.21342 1486.418545, 999.21342 1486.418545, 1009.84335 1465.1586849999999, 1009.84335 1465.1586849999999, 999.21342 1443.8988249999998, 999.21342 1443.8988249999998, 1009.84335 1422.638965, 1009.84335 1422.638965, 999.21342 1401.379105, 999.21342 1401.379105, 1009.84335 1380.1192449999999, 1009.84335 1380.1192449999999, 999.21342 1358.8593850000002, 999.21342 1358.8593850000002, 1009.84335 1337.599525, 1009.84335 1337.599525, 999.21342 1316.339665, 999.21342 1316.339665, 1009.84335 1295.0798049999999, 1009.84335 1295.0798049999999, 999.21342 1273.8199450000002, 999.21342 1273.8199450000002, 1009.84335 1252.560085, 1009.84335 1252.560085, 999.21342 1231.300225, 999.21342 1231.300225, 1009.84335 1210.0403649999998, 1009.84335 1210.0403649999998, 999.21342 1188.7805050000002, 999.21342 1188.7805050000002, 1009.84335 1167.520645, 1009.84335 1167.520645, 999.21342 1146.260785, 999.21342 1146.260785, 1009.84335 1125.0009249999998, 1009.84335 1125.0009249999998, 999.21342 1103.7410650000002, 999.21342 1103.7410650000002, 1009.84335 1082.481205, 1009.84335 1082.481205, 999.21342 1061.221345, 999.21342 1061.221345, 1009.84335 1039.961485, 1009.84335 1039.961485, 999.21342 1018.701625, 999.21342 1018.701625, 1009.84335 997.441765, 1009.84335 997.441765, 999.21342 976.181905, 999.21342 976.181905, 1009.84335 954.922045, 1009.84335 954.922045, 999.21342 933.662185, 999.21342 933.662185, 1009.84335 912.402325, 1009.84335 912.402325, 999.21342 891.142465, 999.21342 891.142465, 1009.84335 869.882605, 1009.84335 869.882605, 999.21342 848.622745, 999.21342 848.622745, 1009.84335 827.362885, 1009.84335 827.362885, 999.21342 806.103025, 999.21342 806.103025, 1009.84335 784.843165, 1009.84335 784.843165, 999.21342 763.583305, 999.21342 763.583305, 1009.84335 742.323445, 1009.84335 742.323445, 999.21342 721.063585, 999.21342 721.063585, 1009.84335 699.803725, 1009.84335 699.803725, 999.21342 678.543865, 999.21342 678.543865, 1009.84335 657.284005, 1009.84335 657.284005, 999.21342 636.024145, 999.21342 636.024145, 1009.84335 614.764285, 1009.84335 614.764285, 999.21342 593.504425, 999.21342 593.504425, 1009.84335 572.244565, 1009.84335 572.244565, 999.21342 550.9847050000001, 999.21342 550.9847050000001, 1009.84335 529.724845, 1009.84335 529.724845, 999.21342 508.464985, 999.21342 508.464985, 1009.84335 487.205125, 1009.84335 487.205125, 999.21342 465.945265, 999.21342 465.945265, 1009.84335 444.685405, 1009.84335 444.685405, 999.21342 423.425545, 999.21342 423.425545, 1009.84335 402.165685, 1009.84335 402.165685, 999.21342 380.905825, 999.21342 380.905825, 1009.84335 359.645965, 1009.84335 359.645965, 999.21342 338.386105, 999.21342 338.386105, 1009.84335 317.126245, 1009.84335 317.126245, 999.21342 295.86638500000004, 999.21342 295.86638500000004, 1009.84335 274.60652500000003, 1009.84335 274.60652500000003, 999.21342 253.346665, 999.21342 253.346665, 1009.84335 232.086805, 1009.84335 232.086805, 999.21342 210.826945, 999.21342 210.826945, 1009.84335 189.567085, 1009.84335 189.567085, 999.21342 168.30722500000002, 999.21342 168.30722500000002, 1009.84335 147.047365, 1009.84335 147.047365, 999.21342 125.787505, 999.21342 125.787505, 1009.84335 104.527645, 1009.84335 104.527645, 999.21342 83.267785, 999.21342 83.267785, 1009.84335 62.007925, 1009.84335 62.007925, 999.21342 31.0039625, 999.21342 31.0039625, 1009.84335 10.62993, 1009.84335 10.62993, 975.2960775 0, 975.2960775 0, 940.7488050000001 10.62993, 940.7488050000001 10.62993, 919.4889450000001 0, 919.4889450000001 0, 898.229085 10.62993, 898.229085 10.62993, 876.969225 0, 876.969225 0, 855.709365 10.62993, 855.709365 10.62993, 834.449505 0, 834.449505 0, 813.189645 10.62993, 813.189645 10.62993, 791.929785 0, 791.929785 0, 770.669925 10.62993, 770.669925 10.62993, 749.410065 0, 749.410065 0, 728.150205 10.62993, 728.150205 10.62993, 706.890345 0, 706.890345 0, 685.630485 10.62993, 685.630485 10.62993, 664.370625 0, 664.370625 0, 643.110765 10.62993, 643.110765 10.62993, 621.850905 0, 621.850905 0, 600.591045 10.62993, 600.591045 10.62993, 579.331185 0, 579.331185 0, 558.071325 10.62993, 558.071325 10.62993, 536.811465 0, 536.811465 0, 515.551605 10.62993, 515.551605 10.62993, 494.291745 0, 494.291745 0, 473.031885 10.62993, 473.031885 10.62993, 451.772025 0, 451.772025 0, 430.512165 10.62993, 430.512165 10.62993, 409.252305 0, 409.252305 0, 387.992445 10.62993, 387.992445 10.62993, 366.732585 0, 366.732585 0, 345.47272499999997 10.62993, 345.47272499999997 10.62993, 324.21286499999997 0, 324.21286499999997 0, 302.953005 10.62993, 302.953005 10.62993, 281.693145 0, 281.693145 0, 260.433285 10.62993, 260.433285 10.62993, 239.173425 0, 239.173425 0, 217.913565 10.62993, 217.913565 10.62993, 196.653705 0, 196.653705 0, 175.393845 10.62993, 175.393845 10.62993, 154.133985 0, 154.133985 0, 132.874125 10.62993, 132.874125 10.62993, 111.61426499999999 0, 111.61426499999999 0, 90.354405 10.62993, 90.354405 10.62993, 69.094545 0, 69.094545 0, 34.5472725 10.62993, 34.5472725 "/> 
</g>
<!-- Right--> 
<g transform="translate(518.5634185, 1032.3433685) " > 
 <rect x="531.4965" y="531.4965" width="248.0317" height="248.0317" rx="318.8979" ry="318.8979" style="stroke:#000000;stroke-width:0.90000074;fill:none" /> 
 <rect x="531.4965" y="531.4965" width="248.0317" height="248.0317" rx="0" ry="0" style="stroke:#000000;stroke-width:0.90000074;fill:none" /> 
 <rect x="531.4965" y="531.4965" width="248.0317" height="248.0317" rx="0" ry="0" style="stroke:#000000;stroke-width:0.90000074;fill:none" /> 
 <rect x="531.4965" y="531.4965" width="248.0317" height="248.0317" rx="0" ry="0" style="stroke:#000000;stroke-width:0.90000074;fill:none" /> 
 <rect x="531.4965" y="531.4965" width="248.0317" height="248.0317" rx="0" ry="0" style="stroke:#000000;stroke-width:0.90000074;fill:none" /> 
 <rect x="531.4965" y="531.4965" width="248.0317" height="248.0317" rx="0" ry="0" style="stroke:#000000;stroke-width:0.90000074;fill:none" /> 
 <rect x="531.4965" y="531.4965" width="248.0317" height="248.0317" rx="0" ry="0" style="stroke:#000000;stroke-width:0.90000074;fill:none" /> 
<polygon style="stroke:#000000; fill:none; stroke-width:0.90000074" points="10.62993, 0 31.0039625, 0 31.0039625, 10.62993 62.007925, 10.62993 62.007925, 0 83.267785, 0 83.267785, 10.62993 104.527645, 10.62993 104.527645, 0 125.787505, 0 125.787505, 10.62993 147.047365, 10.62993 147.047365, 0 168.30722500000002, 0 168.30722500000002, 10.62993 189.567085, 10.62993 189.567085, 0 210.826945, 0 210.826945, 10.62993 232.086805, 10.62993 232.086805, 0 253.346665, 0 253.346665, 10.62993 274.60652500000003, 10.62993 274.60652500000003, 0 295.86638500000004, 0 295.86638500000004, 10.62993 317.126245, 10.62993 317.126245, 0 338.386105, 0 338.386105, 10.62993 359.645965, 10.62993 359.645965, 0 380.905825, 0 380.905825, 10.62993 402.165685, 10.62993 402.165685, 0 423.425545, 0 423.425545, 10.62993 444.685405, 10.62993 444.685405, 0 465.945265, 0 465.945265, 10.62993 487.205125, 10.62993 487.205125, 0 508.464985, 0 508.464985, 10.62993 529.724845, 10.62993 529.724845, 0 550.9847050000001, 0 550.9847050000001, 10.62993 572.244565, 10.62993 572.244565, 0 593.504425, 0 593.504425, 10.62993 614.764285, 10.62993 614.764285, 0 636.024145, 0 636.024145, 10.62993 657.284005, 10.62993 657.284005, 0 678.543865, 0 678.543865, 10.62993 699.803725, 10.62993 699.803725, 0 721.063585, 0 721.063585, 10.62993 742.323445, 10.62993 742.323445, 0 763.583305, 0 763.583305, 10.62993 784.843165, 10.62993 784.843165, 0 806.103025, 0 806.103025, 10.62993 827.362885, 10.62993 827.362885, 0 848.622745, 0 848.622745, 10.62993 869.882605, 10.62993 869.882605, 0 891.142465, 0 891.142465, 10.62993 912.402325, 10.62993 912.402325, 0 933.662185, 0 933.662185, 10.62993 954.922045, 10.62993 954.922045, 0 976.181905, 0 976.181905, 10.62993 997.441765, 10.62993 997.441765, 0 1018.701625, 0 1018.701625, 10.62993 1039.961485, 10.62993 1039.961485, 0 1061.221345, 0 1061.221345, 10.62993 1082.481205, 10.62993 1082.481205, 0 1103.7410650000002, 0 1103.7410650000002, 10.62993 1125.0009249999998, 10.62993 1125.0009249999998, 0 1146.260785, 0 1146.260785, 10.62993 1167.520645, 10.62993 1167.520645, 0 1188.7805050000002, 0 1188.7805050000002, 10.62993 1210.0403649999998, 10.62993 1210.0403649999998, 0 1231.300225, 0 1231.300225, 10.62993 1252.560085, 10.62993 1252.560085, 0 1273.8199450000002, 0 1273.8199450000002, 10.62993 1295.0798049999999, 10.62993 1295.0798049999999, 0 1316.339665, 0 1316.339665, 10.62993 1337.599525, 10.62993 1337.599525, 0 1358.8593850000002, 0 1358.8593850000002, 10.62993 1380.1192449999999, 10.62993 1380.1192449999999, 0 1401.379105, 0 1401.379105, 10.62993 1422.638965, 10.62993 1422.638965, 0 1443.8988249999998, 0 1443.8988249999998, 10.62993 1465.1586849999999, 10.62993 1465.1586849999999, 0 1486.418545, 0 1486.418545, 10.62993 1507.678405, 10.62993 1507.678405, 0 1528.9382649999998, 0 1528.9382649999998, 10.62993 1550.198125, 10.62993 1550.198125, 0 1571.457985, 0 1571.457985, 10.62993 1592.7178450000001, 10.62993 1592.7178450000001, 0 1613.9777049999998, 0 1613.9777049999998, 10.62993 1635.237565, 10.62993 1635.237565, 0 1656.497425, 0 1656.497425, 10.62993 1687.5013875, 10.62993 1687.5013875, 0 1707.8754199999998, 0 1707.8754199999998, 34.5472725 1718.50535, 34.5472725 1718.50535, 69.094545 1707.8754199999998, 69.094545 1707.8754199999998, 90.354405 1718.50535, 90.354405 1718.50535, 111.61426499999999 1707.8754199999998, 111.61426499999999 1707.8754199999998, 132.874125 1718.50535, 132.874125 1718.50535, 154.133985 1707.8754199999998, 154.133985 1707.8754199999998, 175.393845 1718.50535, 175.393845 1718.50535, 196.653705 1707.8754199999998, 196.653705 1707.8754199999998, 217.913565 1718.50535, 217.913565 1718.50535, 239.173425 1707.8754199999998, 239.173425 1707.8754199999998, 260.433285 1718.50535, 260.433285 1718.50535, 281.693145 1707.8754199999998, 281.693145 1707.8754199999998, 302.953005 1718.50535, 302.953005 1718.50535, 324.21286499999997 1707.8754199999998, 324.21286499999997 1707.8754199999998, 345.47272499999997 1718.50535, 345.47272499999997 1718.50535, 366.732585 1707.8754199999998, 366.732585 1707.8754199999998, 387.992445 1718.50535, 387.992445 1718.50535, 409.252305 1707.8754199999998, 409.252305 1707.8754199999998, 430.512165 1718.50535, 430.512165 1718.50535, 451.772025 1707.8754199999998, 451.772025 1707.8754199999998, 473.031885 1718.50535, 473.031885 1718.50535, 494.291745 1707.8754199999998, 494.291745 1707.8754199999998, 515.551605 1718.50535, 515.551605 1718.50535, 536.811465 1707.8754199999998, 536.811465 1707.8754199999998, 558.071325 1718.50535, 558.071325 1718.50535, 579.331185 1707.8754199999998, 579.331185 1707.8754199999998, 600.591045 1718.50535, 600.591045 1718.50535, 621.850905 1707.8754199999998, 621.850905 1707.8754199999998, 643.110765 1718.50535, 643.110765 1718.50535, 664.370625 1707.8754199999998, 664.370625 1707.8754199999998, 685.630485 1718.50535, 685.630485 1718.50535, 706.890345 1707.8754199999998, 706.890345 1707.8754199999998, 728.150205 1718.50535, 728.150205 1718.50535, 749.410065 1707.8754199999998, 749.410065 1707.8754199999998, 770.669925 1718.50535, 770.669925 1718.50535, 791.929785 1707.8754199999998, 791.929785 1707.8754199999998, 813.189645 1718.50535, 813.189645 1718.50535, 834.449505 1707.8754199999998, 834.449505 1707.8754199999998, 855.709365 1718.50535, 855.709365 1718.50535, 876.969225 1707.8754199999998, 876.969225 1707.8754199999998, 898.229085 1718.50535, 898.229085 1718.50535, 919.4889450000001 1707.8754199999998, 919.4889450000001 1707.8754199999998, 940.7488050000001 1718.50535, 940.7488050000001 1718.50535, 975.2960775 1707.8754199999998, 975.2960775 1707.8754199999998, 1009.84335 1687.5013875, 1009.84335 1687.5013875, 999.21342 1656.497425, 999.21342 1656.497425, 1009.84335 1635.237565, 1009.84335 1635.237565, 999.21342 1613.9777049999998, 999.21342 1613.9777049999998, 1009.84335 1592.7178450000001, 1009.84335 1592.7178450000001, 999.21342 1571.457985, 999.21342 1571.457985, 1009.84335 1550.198125, 1009.84335 1550.198125, 999.21342 1528.9382649999998, 999.21342 1528.9382649999998, 1009.84335 1507.678405, 1009.84335 1507.678405, 999.21342 1486.418545, 999.21342 1486.418545, 1009.84335 1465.1586849999999, 1009.84335 1465.1586849999999, 999.21342 1443.8988249999998, 999.21342 1443.8988249999998, 1009.84335 1422.638965, 1009.84335 1422.638965, 999.21342 1401.379105, 999.21342 1401.379105, 1009.84335 1380.1192449999999, 1009.84335 1380.1192449999999, 999.21342 1358.8593850000002, 999.21342 1358.8593850000002, 1009.84335 1337.599525, 1009.84335 1337.599525, 999.21342 1316.339665, 999.21342 1316.339665, 1009.84335 1295.0798049999999, 1009.84335 1295.0798049999999, 999.21342 1273.8199450000002, 999.21342 1273.8199450000002, 1009.84335 1252.560085, 1009.84335 1252.560085, 999.21342 1231.300225, 999.21342 1231.300225, 1009.84335 1210.0403649999998, 1009.84335 1210.0403649999998, 999.21342 1188.7805050000002, 999.21342 1188.7805050000002, 1009.84335 1167.520645, 1009.84335 1167.520645, 999.21342 1146.260785, 999.21342 1146.260785, 1009.84335 1125.0009249999998, 1009.84335 1125.0009249999998, 999.21342 1103.7410650000002, 999.21342 1103.7410650000002, 1009.84335 1082.481205, 1009.84335 1082.481205, 999.21342 1061.221345, 999.21342 1061.221345, 1009.84335 1039.961485, 1009.84335 1039.961485, 999.21342 1018.701625, 999.21342 1018.701625, 1009.84335 997.441765, 1009.84335 997.441765, 999.21342 976.181905, 999.21342 976.181905, 1009.84335 954.922045, 1009.84335 954.922045, 999.21342 933.662185, 999.21342 933.662185, 1009.84335 912.402325, 1009.84335 912.402325, 999.21342 891.142465, 999.21342 891.142465, 1009.84335 869.882605, 1009.84335 869.882605, 999.21342 848.622745, 999.21342 848.622745, 1009.84335 827.362885, 1009.84335 827.362885, 999.21342 806.103025, 999.21342 806.103025, 1009.84335 784.843165, 1009.84335 784.843165, 999.21342 763.583305, 999.21342 763.583305, 1009.84335 742.323445, 1009.84335 742.323445, 999.21342 721.063585, 999.21342 721.063585, 1009.84335 699.803725, 1009.84335 699.803725, 999.21342 678.543865, 999.21342 678.543865, 1009.84335 657.284005, 1009.84335 657.284005, 999.21342 636.024145, 999.21342 636.024145, 1009.84335 614.764285, 1009.84335 614.764285, 999.21342 593.504425, 999.21342 593.504425, 1009.84335 572.244565, 1009.84335 572.244565, 999.21342 550.9847050000001, 999.21342 550.9847050000001, 1009.84335 529.724845, 1009.84335 529.724845, 999.21342 508.464985, 999.21342 508.464985, 1009.84335 487.205125, 1009.84335 487.205125, 999.21342 465.945265, 999.21342 465.945265, 1009.84335 444.685405, 1009.84335 444.685405, 999.21342 423.425545, 999.21342 423.425545, 1009.84335 402.165685, 1009.84335 402.165685, 999.21342 380.905825, 999.21342 380.905825, 1009.84335 359.645965, 1009.84335 359.645965, 999.21342 338.386105, 999.21342 338.386105, 1009.84335 317.126245, 1009.84335 317.126245, 999.21342 295.86638500000004, 999.21342 295.86638500000004, 1009.84335 274.60652500000003, 1009.84335 274.60652500000003, 999.21342 253.346665, 999.21342 253.346665, 1009.84335 232.086805, 1009.84335 232.086805, 999.21342 210.826945, 999.21342 210.826945, 1009.84335 189.567085, 1009.84335 189.567085, 999.21342 168.30722500000002, 999.21342 168.30722500000002, 1009.84335 147.047365, 1009.84335 147.047365, 999.21342 125.787505, 999.21342 125.787505, 1009.84335 104.527645, 1009.84335 104.527645, 999.21342 83.267785, 999.21342 83.267785, 1009.84335 62.007925, 1009.84335 62.007925, 999.21342 31.0039625, 999.21342 31.0039625, 1009.84335 10.62993, 1009.84335 10.62993, 975.2960775 0, 975.2960775 0, 940.7488050000001 10.62993, 940.7488050000001 10.62993, 919.4889450000001 0, 919.4889450000001 0, 898.229085 10.62993, 898.229085 10.62993, 876.969225 0, 876.969225 0, 855.709365 10.62993, 855.709365 10.62993, 834.449505 0, 834.449505 0, 813.189645 10.62993, 813.189645 10.62993, 791.929785 0, 791.929785 0, 770.669925 10.62993, 770.669925 10.62993, 749.410065 0, 749.410065 0, 728.150205 10.62993, 728.150205 10.62993, 706.890345 0, 706.890345 0, 685.630485 10.62993, 685.630485 10.62993, 664.370625 0, 664.370625 0, 643.110765 10.62993, 643.110765 10.62993, 621.850905 0, 621.850905 0, 600.591045 10.62993, 600.591045 10.62993, 579.331185 0, 579.331185 0, 558.071325 10.62993, 558.071325 10.62993, 536.811465 0, 536.811465 0, 515.551605 10.62993, 515.551605 10.62993, 494.291745 0, 494.291745 0, 473.031885 10.62993, 473.031885 10.62993, 451.772025 0, 451.772025 0, 430.512165 10.62993, 430.512165 10.62993, 409.252305 0, 409.252305 0, 387.992445 10.62993, 387.992445 10.62993, 366.732585 0, 366.732585 0, 345.47272499999997 10.62993, 345.47272499999997 10.62993, 324.21286499999997 0, 324.21286499999997 0, 302.953005 10.62993, 302.953005 10.62993, 281.693145 0, 281.693145 0, 260.433285 10.62993, 260.433285 10.62993, 239.173425 0, 239.173425 0, 217.913565 10.62993, 217.913565 10.62993, 196.653705 0, 196.653705 0, 175.393845 10.62993, 175.393845 10.62993, 154.133985 0, 154.133985 0, 132.874125 10.62993, 132.874125 10.62993, 111.61426499999999 0, 111.61426499999999 0, 90.354405 10.62993, 90.354405 10.62993, 69.094545 0, 69.094545 0, 34.5472725 10.62993, 34.5472725 "/> 
</g>
<!-- Top--> 
<g transform="translate(22.5000185, 1032.3433685) " > 
<polygon style="stroke:#000000; fill:none; stroke-width:0.90000074" points="10.62993, 10.62993 35.433099999999996, 10.62993 35.433099999999996, 0 70.86619999999999, 0 70.86619999999999, 10.62993 92.12606, 10.62993 92.12606, 0 113.38592, 0 113.38592, 10.62993 134.64578, 10.62993 134.64578, 0 155.90564, 0 155.90564, 10.62993 177.1655, 10.62993 177.1655, 0 212.59859999999998, 0 212.59859999999998, 10.62993 237.40177, 10.62993 237.40177, 31.0039625 248.0317, 31.0039625 248.0317, 62.007925 237.40177, 62.007925 237.40177, 83.267785 248.0317, 83.267785 248.0317, 104.527645 237.40177, 104.527645 237.40177, 125.787505 248.0317, 125.787505 248.0317, 147.047365 237.40177, 147.047365 237.40177, 168.30722500000002 248.0317, 168.30722500000002 248.0317, 189.567085 237.40177, 189.567085 237.40177, 210.826945 248.0317, 210.826945 248.0317, 232.086805 237.40177, 232.086805 237.40177, 253.346665 248.0317, 253.346665 248.0317, 274.60652500000003 237.40177, 274.60652500000003 237.40177, 295.86638500000004 248.0317, 295.86638500000004 248.0317, 317.126245 237.40177, 317.126245 237.40177, 338.386105 248.0317, 338.386105 248.0317, 359.645965 237.40177, 359.645965 237.40177, 380.905825 248.0317, 380.905825 248.0317, 402.165685 237.40177, 402.165685 237.40177, 423.425545 248.0317, 423.425545 248.0317, 444.685405 237.40177, 444.685405 237.40177, 465.945265 248.0317, 465.945265 248.0317, 487.205125 237.40177, 487.205125 237.40177, 508.464985 248.0317, 508.464985 248.0317, 529.724845 237.40177, 529.724845 237.40177, 550.9847050000001 248.0317, 550.9847050000001 248.0317, 572.244565 237.40177, 572.244565 237.40177, 593.504425 248.0317, 593.504425 248.0317, 614.764285 237.40177, 614.764285 237.40177, 636.024145 248.0317, 636.024145 248.0317, 657.284005 237.40177, 657.284005 237.40177, 678.543865 248.0317, 678.543865 248.0317, 699.803725 237.40177, 699.803725 237.40177, 721.063585 248.0317, 721.063585 248.0317, 742.323445 237.40177, 742.323445 237.40177, 763.583305 248.0317, 763.583305 248.0317, 784.843165 237.40177, 784.843165 237.40177, 806.103025 248.0317, 806.103025 248.0317, 827.362885 237.40177, 827.362885 237.40177, 848.622745 248.0317, 848.622745 248.0317, 869.882605 237.40177, 869.882605 237.40177, 891.142465 248.0317, 891.142465 248.0317, 912.402325 237.40177, 912.402325 237.40177, 933.662185 248.0317, 933.662185 248.0317, 954.922045 237.40177, 954.922045 237.40177, 976.181905 248.0317, 976.181905 248.0317, 997.441765 237.40177, 997.441765 237.40177, 1018.701625 248.0317, 1018.701625 248.0317, 1039.961485 237.40177, 1039.961485 237.40177, 1061.221345 248.0317, 1061.221345 248.0317, 1082.481205 237.40177, 1082.481205 237.40177, 1103.7410650000002 248.0317, 1103.7410650000002 248.0317, 1125.0009249999998 237.40177, 1125.0009249999998 237.40177, 1146.260785 248.0317, 1146.260785 248.0317, 1167.520645 237.40177, 1167.520645 237.40177, 1188.7805050000002 248.0317, 1188.7805050000002 248.0317, 1210.0403649999998 237.40177, 1210.0403649999998 237.40177, 1231.300225 248.0317, 1231.300225 248.0317, 1252.560085 237.40177, 1252.560085 237.40177, 1273.8199450000002 248.0317, 1273.8199450000002 248.0317, 1295.0798049999999 237.40177, 1295.0798049999999 237.40177, 1316.339665 248.0317, 1316.339665 248.0317, 1337.599525 237.40177, 1337.599525 237.40177, 1358.8593850000002 248.0317, 1358.8593850000002 248.0317, 1380.1192449999999 237.40177, 1380.1192449999999 237.40177, 1401.379105 248.0317, 1401.379105 248.0317, 1422.638965 237.40177, 1422.638965 237.40177, 1443.8988249999998 248.0317, 1443.8988249999998 248.0317, 1465.1586849999999 237.40177, 1465.1586849999999 237.40177, 1486.418545 248.0317, 1486.418545 248.0317, 1507.678405 237.40177, 1507.678405 237.40177, 1528.9382649999998 248.0317, 1528.9382649999998 248.0317, 1550.198125 237.40177, 1550.198125 237.40177, 1571.457985 248.0317, 1571.457985 248.0317, 1592.7178450000001 237.40177, 1592.7178450000001 237.40177, 1613.9777049999998 248.0317, 1613.9777049999998 248.0317, 1635.237565 237.40177, 1635.237565 237.40177, 1656.497425 248.0317, 1656.497425 248.0317, 1687.5013875 237.40177, 1687.5013875 237.40177, 1707.8754199999998 212.59859999999998, 1707.8754199999998 212.59859999999998, 1718.50535 177.1655, 1718.50535 177.1655, 1707.8754199999998 155.90564, 1707.8754199999998 155.90564, 1718.50535 134.64578, 1718.50535 134.64578, 1707.8754199999998 113.38592, 1707.8754199999998 113.38592, 1718.50535 92.12606, 1718.50535 92.12606, 1707.8754199999998 70.86619999999999, 1707.8754199999998 70.86619999999999, 1718.50535 35.433099999999996, 1718.50535 35.433099999999996, 1707.8754199999998 10.62993, 1707.8754199999998 10.62993, 1687.5013875 0, 1687.5013875 0, 1656.497425 10.62993, 1656.497425 10.62993, 1635.237565 0, 1635.237565 0, 1613.9777049999998 10.62993, 1613.9777049999998 10.62993, 1592.7178450000001 0, 1592.7178450000001 0, 1571.457985 10.62993, 1571.457985 10.62993, 1550.198125 0, 1550.198125 0, 1528.9382649999998 10.62993, 1528.9382649999998 10.62993, 1507.678405 0, 1507.678405 0, 1486.418545 10.62993, 1486.418545 10.62993, 1465.1586849999999 0, 1465.1586849999999 0, 1443.8988249999998 10.62993, 1443.8988249999998 10.62993, 1422.638965 0, 1422.638965 0, 1401.379105 10.62993, 1401.379105 10.62993, 1380.1192449999999 0, 1380.1192449999999 0, 1358.8593850000002 10.62993, 1358.8593850000002 10.62993, 1337.599525 0, 1337.599525 0, 1316.339665 10.62993, 1316.339665 10.62993, 1295.0798049999999 0, 1295.0798049999999 0, 1273.8199450000002 10.62993, 1273.8199450000002 10.62993, 1252.560085 0, 1252.560085 0, 1231.300225 10.62993, 1231.300225 10.62993, 1210.0403649999998 0, 1210.0403649999998 0, 1188.7805050000002 10.62993, 1188.7805050000002 10.62993, 1167.520645 0, 1167.520645 0, 1146.260785 10.62993, 1146.260785 10.62993, 1125.0009249999998 0, 1125.0009249999998 0, 1103.7410650000002 10.62993, 1103.7410650000002 10.62993, 1082.481205 0, 1082.481205 0, 1061.221345 10.62993, 1061.221345 10.62993, 1039.961485 0, 1039.961485 0, 1018.701625 10.62993, 1018.701625 10.62993, 997.441765 0, 997.441765 0, 976.181905 10.62993, 976.181905 10.62993, 954.922045 0, 954.922045 0, 933.662185 10.62993, 933.662185 10.62993, 912.402325 0, 912.402325 0, 891.142465 10.62993, 891.142465 10.62993, 869.882605 0, 869.882605 0, 848.622745 10.62993, 848.622745 10.62993, 827.362885 0, 827.362885 0, 806.103025 10.62993, 806.103025 10.62993, 784.843165 0, 784.843165 0, 763.583305 10.62993, 763.583305 10.62993, 742.323445 0, 742.323445 0, 721.063585 10.62993, 721.063585 10.62993, 699.803725 0, 699.803725 0, 678.543865 10.62993, 678.543865 10.62993, 657.284005 0, 657.284005 0, 636.024145 10.62993, 636.024145 10.62993, 614.764285 0, 614.764285 0, 593.504425 10.62993, 593.504425 10.62993, 572.244565 0, 572.244565 0, 550.9847050000001 10.62993, 550.9847050000001 10.62993, 529.724845 0, 529.724845 0, 508.464985 10.62993, 508.464985 10.62993, 487.205125 0, 487.205125 0, 465.945265 10.62993, 465.945265 10.62993, 444.685405 0, 444.685405 0, 423.425545 10.62993, 423.425545 10.62993, 402.165685 0, 402.165685 0, 380.905825 10.62993, 380.905825 10.62993, 359.645965 0, 359.645965 0, 338.386105 10.62993, 338.386105 10.62993, 317.126245 0, 317.126245 0, 295.86638500000004 10.62993, 295.86638500000004 10.62993, 274.60652500000003 0, 274.60652500000003 0, 253.346665 10.62993, 253.346665 10.62993, 232.086805 0, 232.086805 0, 210.826945 10.62993, 210.826945 10.62993, 189.567085 0, 189.567085 0, 168.30722500000002 10.62993, 168.30722500000002 10.62993, 147.047365 0, 147.047365 0, 125.787505 10.62993, 125.787505 10.62993, 104.527645 0, 104.527645 0, 83.267785 10.62993, 83.267785 10.62993, 62.007925 0, 62.007925 0, 31.0039625 10.62993, 31.0039625 "/> 
</g>
<!-- Bottom--> 
<g transform="translate(270.53171849999995, 1032.3433685) " > 
<polygon style="stroke:#000000; fill:none; stroke-width:0.90000074" points="10.62993, 10.62993 35.433099999999996, 10.62993 35.433099999999996, 0 70.86619999999999, 0 70.86619999999999, 10.62993 92.12606, 10.62993 92.12606, 0 113.38592, 0 113.38592, 10.62993 134.64578, 10.62993 134.64578, 0 155.90564, 0 155.90564, 10.62993 177.1655, 10.62993 177.1655, 0 212.59859999999998, 0 212.59859999999998, 10.62993 237.40177, 10.62993 237.40177, 31.0039625 248.0317, 31.0039625 248.0317, 62.007925 237.40177, 62.007925 237.40177, 83.267785 248.0317, 83.267785 248.0317, 104.527645 237.40177, 104.527645 237.40177, 125.787505 248.0317, 125.787505 248.0317, 147.047365 237.40177, 147.047365 237.40177, 168.30722500000002 248.0317, 168.30722500000002 248.0317, 189.567085 237.40177, 189.567085 237.40177, 210.826945 248.0317, 210.826945 248.0317, 232.086805 237.40177, 232.086805 237.40177, 253.346665 248.0317, 253.346665 248.0317, 274.60652500000003 237.40177, 274.60652500000003 237.40177, 295.86638500000004 248.0317, 295.86638500000004 248.0317, 317.126245 237.40177, 317.126245 237.40177, 338.386105 248.0317, 338.386105 248.0317, 359.645965 237.40177, 359.645965 237.40177, 380.905825 248.0317, 380.905825 248.0317, 402.165685 237.40177, 402.165685 237.40177, 423.425545 248.0317, 423.425545 248.0317, 444.685405 237.40177, 444.685405 237.40177, 465.945265 248.0317, 465.945265 248.0317, 487.205125 237.40177, 487.205125 237.40177, 508.464985 248.0317, 508.464985 248.0317, 529.724845 237.40177, 529.724845 237.40177, 550.9847050000001 248.0317, 550.9847050000001 248.0317, 572.244565 237.40177, 572.244565 237.40177, 593.504425 248.0317, 593.504425 248.0317, 614.764285 237.40177, 614.764285 237.40177, 636.024145 248.0317, 636.024145 248.0317, 657.284005 237.40177, 657.284005 237.40177, 678.543865 248.0317, 678.543865 248.0317, 699.803725 237.40177, 699.803725 237.40177, 721.063585 248.0317, 721.063585 248.0317, 742.323445 237.40177, 742.323445 237.40177, 763.583305 248.0317, 763.583305 248.0317, 784.843165 237.40177, 784.843165 237.40177, 806.103025 248.0317, 806.103025 248.0317, 827.362885 237.40177, 827.362885 237.40177, 848.622745 248.0317, 848.622745 248.0317, 869.882605 237.40177, 869.882605 237.40177, 891.142465 248.0317, 891.142465 248.0317, 912.402325 237.40177, 912.402325 237.40177, 933.662185 248.0317, 933.662185 248.0317, 954.922045 237.40177, 954.922045 237.40177, 976.181905 248.0317, 976.181905 248.0317, 997.441765 237.40177, 997.441765 237.40177, 1018.701625 248.0317, 1018.701625 248.0317, 1039.961485 237.40177, 1039.961485 237.40177, 1061.221345 248.0317, 1061.221345 248.0317, 1082.481205 237.40177, 1082.481205 237.40177, 1103.7410650000002 248.0317, 1103.7410650000002 248.0317, 1125.0009249999998 237.40177, 1125.0009249999998 237.40177, 1146.260785 248.0317, 1146.260785 248.0317, 1167.520645 237.40177, 1167.520645 237.40177, 1188.7805050000002 248.0317, 1188.7805050000002 248.0317, 1210.0403649999998 237.40177, 1210.0403649999998 237.40177, 1231.300225 248.0317, 1231.300225 248.0317, 1252.560085 237.40177, 1252.560085 237.40177, 1273.8199450000002 248.0317, 1273.8199450000002 248.0317, 1295.0798049999999 237.40177, 1295.0798049999999 237.40177, 1316.339665 248.0317, 1316.339665 248.0317, 1337.599525 237.40177, 1337.599525 237.40177, 1358.8593850000002 248.0317, 1358.8593850000002 248.0317, 1380.1192449999999 237.40177, 1380.1192449999999 237.40177, 1401.379105 248.0317, 1401.379105 248.0317, 1422.638965 237.40177, 1422.638965 237.40177, 1443.8988249999998 248.0317, 1443.8988249999998 248.0317, 1465.1586849999999 237.40177, 1465.1586849999999 237.40177, 1486.418545 248.0317, 1486.418545 248.0317, 1507.678405 237.40177, 1507.678405 237.40177, 1528.9382649999998 248.0317, 1528.9382649999998 248.0317, 1550.198125 237.40177, 1550.198125 237.40177, 1571.457985 248.0317, 1571.457985 248.0317, 1592.7178450000001 237.40177, 1592.7178450000001 237.40177, 1613.9777049999998 248.0317, 1613.9777049999998 248.0317, 1635.237565 237.40177, 1635.237565 237.40177, 1656.497425 248.0317, 1656.497425 248.0317, 1687.5013875 237.40177, 1687.5013875 237.40177, 1707.8754199999998 212.59859999999998, 1707.8754199999998 212.59859999999998, 1718.50535 177.1655, 1718.50535 177.1655, 1707.8754199999998 155.90564, 1707.8754199999998 155.90564, 1718.50535 134.64578, 1718.50535 134.64578, 1707.8754199999998 113.38592, 1707.8754199999998 113.38592, 1718.50535 92.12606, 1718.50535 92.12606, 1707.8754199999998 70.86619999999999, 1707.8754199999998 70.86619999999999, 1718.50535 35.433099999999996, 1718.50535 35.433099999999996, 1707.8754199999998 10.62993, 1707.8754199999998 10.62993, 1687.5013875 0, 1687.5013875 0, 1656.497425 10.62993, 1656.497425 10.62993, 1635.237565 0, 1635.237565 0, 1613.9777049999998 10.62993, 1613.9777049999998 10.62993, 1592.7178450000001 0, 1592.7178450000001 0, 1571.457985 10.62993, 1571.457985 10.62993, 1550.198125 0, 1550.198125 0, 1528.9382649999998 10.62993, 1528.9382649999998 10.62993, 1507.678405 0, 1507.678405 0, 1486.418545 10.62993, 1486.418545 10.62993, 1465.1586849999999 0, 1465.1586849999999 0, 1443.8988249999998 10.62993, 1443.8988249999998 10.62993, 1422.638965 0, 1422.638965 0, 1401.379105 10.62993, 1401.379105 10.62993, 1380.1192449999999 0, 1380.1192449999999 0, 1358.8593850000002 10.62993, 1358.8593850000002 10.62993, 1337.599525 0, 1337.599525 0, 1316.339665 10.62993, 1316.339665 10.62993, 1295.0798049999999 0, 1295.0798049999999 0, 1273.8199450000002 10.62993, 1273.8199450000002 10.62993, 1252.560085 0, 1252.560085 0, 1231.300225 10.62993, 1231.300225 10.62993, 1210.0403649999998 0, 1210.0403649999998 0, 1188.7805050000002 10.62993, 1188.7805050000002 10.62993, 1167.520645 0, 1167.520645 0, 1146.260785 10.62993, 1146.260785 10.62993, 1125.0009249999998 0, 1125.0009249999998 0, 1103.7410650000002 10.62993, 1103.7410650000002 10.62993, 1082.481205 0, 1082.481205 0, 1061.221345 10.62993, 1061.221345 10.62993, 1039.961485 0, 1039.961485 0, 1018.701625 10.62993, 1018.701625 10.62993, 997.441765 0, 997.441765 0, 976.181905 10.62993, 976.181905 10.62993, 954.922045 0, 954.922045 0, 933.662185 10.62993, 933.662185 10.62993, 912.402325 0, 912.402325 0, 891.142465 10.62993, 891.142465 10.62993, 869.882605 0, 869.882605 0, 848.622745 10.62993, 848.622745 10.62993, 827.362885 0, 827.362885 0, 806.103025 10.62993, 806.103025 10.62993, 784.843165 0, 784.843165 0, 763.583305 10.62993, 763.583305 10.62993, 742.323445 0, 742.323445 0, 721.063585 10.62993, 721.063585 10.62993, 699.803725 0, 699.803725 0, 678.543865 10.62993, 678.543865 10.62993, 657.284005 0, 657.284005 0, 636.024145 10.62993, 636.024145 10.62993, 614.764285 0, 614.764285 0, 593.504425 10.62993, 593.504425 10.62993, 572.244565 0, 572.244565 0, 550.9847050000001 10.62993, 550.9847050000001 10.62993, 529.724845 0, 529.724845 0, 508.464985 10.62993, 508.464985 10.62993, 487.205125 0, 487.205125 0, 465.945265 10.62993, 465.945265 10.62993, 444.685405 0, 444.685405 0, 423.425545 10.62993, 423.425545 10.62993, 402.165685 0, 402.165685 0, 380.905825 10.62993, 380.905825 10.62993, 359.645965 0, 359.645965 0, 338.386105 10.62993, 338.386105 10.62993, 317.126245 0, 317.126245 0, 295.86638500000004 10.62993, 295.86638500000004 10.62993, 274.60652500000003 0, 274.60652500000003 0, 253.346665 10.62993, 253.346665 10.62993, 232.086805 0, 232.086805 0, 210.826945 10.62993, 210.826945 10.62993, 189.567085 0, 189.567085 0, 168.30722500000002 10.62993, 168.30722500000002 10.62993, 147.047365 0, 147.047365 0, 125.787505 10.62993, 125.787505 10.62993, 104.527645 0, 104.527645 0, 83.267785 10.62993, 83.267785 10.62993, 62.007925 0, 62.007925 0, 31.0039625 10.62993, 31.0039625 "/> 
</g></svg>